<svg height="24" viewBox="0 0 80 24" width="80" xmlns="http://www.w3.org/2000/svg"><g fill="none"><path d="m0 0h80v24h-80z" fill="#ffc915"/><path d="m33.02 7.14888889c1.2533333 0 2.4622222.42444444 3.3777778 1.17555555v-1.00444444h1.7177778v10.9311111h-1.7177778v-1c-.9.7466667-2.1088889 1.1688889-3.3777778 1.1688889-1.5555556 0-2.9711111-.5755556-3.9844444-1.62-1.0044445-1.0311111-1.5555556-2.4533333-1.5555556-4.0066667 0-1.5555555.5533333-2.98222219 1.5555556-4.01777774 1.0155555-1.04888889 2.4311111-1.62666667 3.9844444-1.62666667zm-11.8911111-.04c1.4066667 0 2.6822222.51333333 3.5955555 1.44888889.9711112.99555555 1.4888889 2.39333332 1.5 4.04666662v.5622223h-8.8466666c.1066666 2.0533333 1.6733333 3.5777777 3.7111111 3.5777777 1.4622222 0 2.5088889-.6244444 3.2955555-1.9644444l.0955556-.1622222 1.4888889.9577778-.0866667.1488888c-1.0088889 1.7355556-2.6666666 2.6533334-4.7955555 2.6533334-3.2111111 0-5.4533334-2.3133334-5.4533334-5.6244445 0-3.27111108 2.3111111-5.64444441 5.4955556-5.64444441zm45.6955555 0c1.4066667 0 2.6822223.51333333 3.5955556 1.44888889.9711111.99555555 1.4888889 2.39333332 1.5 4.04666662v.5622223h-8.8466667c.1066667 2.0533333 1.6733334 3.5777777 3.7111111 3.5777777 1.4622223 0 2.5088889-.6244444 3.2955556-1.9644444l.0955556-.1622222 1.4888888.9577778-.0866666.1488888c-1.0088889 1.7355556-2.6666667 2.6533334-4.7955556 2.6533334-3.2111111 0-5.4533333-2.3133334-5.4555555-5.6244445 0-3.27111108 2.3133333-5.64444441 5.4977777-5.64444441zm-51.8533333.18888889v1.63333333h-4.97777777v9.31777779h-1.73777777v-10.95111112zm40.84-.14888889c2.4888889 0 4.0355556 1.70888889 4.0355556 4.46000001v6.62h-1.7377778v-6.62c0-1.71777779-.9844445-2.82666668-2.5088889-2.82666668-1.96 0-2.6577778 1.35111108-2.6577778 2.61555558v6.8333333h-1.7377778v-6.62c0-1.74444443-.9533333-2.82666666-2.4888888-2.82666666-1.2644445 0-2.6155556.98222223-2.6155556 2.44444446v6.9955555h-1.7377778v-10.92888884h1.7377778v1.06c.7177778-.78222223 1.74-1.20666667 2.9333333-1.20666667 1.7666667 0 2.7333334.89333333 3.2533334 1.74.7911111-1.10888889 2.0577777-1.74 3.5244444-1.74zm-13.7044444-3.07777778v14.15777779h-1.7377778v-14.15777779zm-9.1733334 4.81777778c-2.1177777 0-3.7155555 1.68000001-3.7155555 3.90666671 0 2.2155555 1.5977778 3.8844444 3.7155555 3.8866666 2.1977778 0 3.6733334-1.5622222 3.6733334-3.8866666 0-2.3355556-1.4755556-3.90666671-3.6733334-3.90666671zm-11.8444444-.14888889c-1.7511111 0-3.2133333 1.16444444-3.6311111 2.8577778h7c-.3066667-1.7177778-1.6355556-2.8577778-3.3688889-2.8577778zm45.6933333 0c-1.7511111 0-3.2133333 1.16444444-3.6311111 2.8577778h7c-.3066667-1.7177778-1.6355555-2.8577778-3.3688889-2.8577778z" fill="#111"/></g></svg>